<svg width="40" height="40" viewBox="0 0 40 40" fill="none" xmlns="http://www.w3.org/2000/svg">
  <!-- Geometric Architecture Frame -->
  <rect x="6" y="6" width="28" height="28" rx="3" stroke="rgba(88, 166, 255, 0.15)" stroke-width="1" fill="none"/>
  
  <!-- Code Brackets - Left -->
  <path d="M14 10 L14 30 M14 10 Q12 10 12 12 L12 28 Q12 30 14 30" 
        stroke="#58a6ff" 
        stroke-width="2.5" 
        fill="none"
        stroke-linecap="round"
        stroke-linejoin="round"/>
  
  <!-- Code Brackets - Right -->
  <path d="M26 10 L26 30 M26 10 Q28 10 28 12 L28 28 Q28 30 26 30" 
        stroke="#58a6ff" 
        stroke-width="2.5" 
        fill="none"
        stroke-linecap="round"
        stroke-linejoin="round"/>
  
  <!-- Architectural Module Lines -->
  <line x1="17" y1="15" x2="23" y2="15" 
        stroke="rgba(88, 166, 255, 0.5)" 
        stroke-width="1.5" 
        stroke-linecap="round"/>
  <line x1="17" y1="20" x2="23" y2="20" 
        stroke="rgba(88, 166, 255, 0.5)" 
        stroke-width="1.5" 
        stroke-linecap="round"/>
  <line x1="17" y1="25" x2="23" y2="25" 
        stroke="rgba(88, 166, 255, 0.5)" 
        stroke-width="1.5" 
        stroke-linecap="round"/>
  
  <!-- Subtle Circuit Nodes -->
  <circle cx="16" cy="17.5" r="1" fill="#58a6ff" opacity="0.7"/>
  <circle cx="24" cy="22.5" r="1" fill="#58a6ff" opacity="0.7"/>
  
  <!-- Connection Line -->
  <line x1="16" y1="17.5" x2="24" y2="22.5" 
        stroke="rgba(88, 166, 255, 0.3)" 
        stroke-width="1" 
        stroke-dasharray="2,2"
        stroke-linecap="round"/>
</svg>

