<svg width="160" height="40" viewBox="0 0 160 40" fill="none" xmlns="http://www.w3.org/2000/svg">
  <!-- Logo Icon -->
  <g>
    <rect x="6" y="6" width="28" height="28" rx="3" stroke="rgba(0, 102, 204, 0.1)" stroke-width="1" fill="none"/>
    <path d="M14 10 L14 30 M14 10 Q12 10 12 12 L12 28 Q12 30 14 30" 
          stroke="#0066cc" 
          stroke-width="2.5" 
          fill="none"
          stroke-linecap="round"
          stroke-linejoin="round"/>
    <path d="M26 10 L26 30 M26 10 Q28 10 28 12 L28 28 Q28 30 26 30" 
          stroke="#0066cc" 
          stroke-width="2.5" 
          fill="none"
          stroke-linecap="round"
          stroke-linejoin="round"/>
    <line x1="17" y1="15" x2="23" y2="15" 
          stroke="rgba(0, 102, 204, 0.4)" 
          stroke-width="1.5" 
          stroke-linecap="round"/>
    <line x1="17" y1="20" x2="23" y2="20" 
          stroke="rgba(0, 102, 204, 0.4)" 
          stroke-width="1.5" 
          stroke-linecap="round"/>
    <line x1="17" y1="25" x2="23" y2="25" 
          stroke="rgba(0, 102, 204, 0.4)" 
          stroke-width="1.5" 
          stroke-linecap="round"/>
    <circle cx="16" cy="17.5" r="1" fill="#0066cc" opacity="0.7"/>
    <circle cx="24" cy="22.5" r="1" fill="#0066cc" opacity="0.7"/>
    <line x1="16" y1="17.5" x2="24" y2="22.5" 
          stroke="rgba(0, 102, 204, 0.25)" 
          stroke-width="1" 
          stroke-dasharray="2,2"
          stroke-linecap="round"/>
  </g>
  
  <!-- Text -->
  <text x="48" y="26" font-family="-apple-system, BlinkMacSystemFont, 'Segoe UI', 'Roboto', 'Oxygen', 'Ubuntu', 'Cantarell', 'Fira Sans', 'Droid Sans', 'Helvetica Neue', sans-serif" font-size="18" font-weight="600" fill="#212529" letter-spacing="-0.02em">Portfolio</text>
</svg>

